<?xml version="1.0" standalone="no"?>
<!DOCTYPE svg PUBLIC "-//W3C//DTD SVG 20010904//EN"
 "http://www.w3.org/TR/2001/REC-SVG-20010904/DTD/svg10.dtd">
<svg version="1.0" xmlns="http://www.w3.org/2000/svg"
 width="500.000000pt" height="500.000000pt" viewBox="0 0 500.000000 500.000000"
 preserveAspectRatio="xMidYMid meet">

<g transform="translate(0.000000,500.000000) scale(0.100000,-0.100000)"
fill="#000000" stroke="none">
<path d="M0 2500 l0 -2500 2500 0 2500 0 0 2500 0 2500 -2500 0 -2500 0 0
-2500z m1808 464 c20 -14 22 -23 22 -107 0 -51 -9 -285 -20 -522 -11 -236 -20
-448 -20 -470 -1 -44 -15 -69 -45 -79 -16 -5 -131 65 -490 299 -259 168 -474
315 -479 325 -5 12 -5 28 0 41 7 15 162 100 504 275 272 140 497 254 500 254
3 0 16 -7 28 -16z m700 -236 c28 -28 1 -75 -37 -63 -25 8 -34 31 -21 56 12 21
40 25 58 7z m-229 -24 c77 -16 107 -100 54 -153 l-28 -27 29 -20 c36 -23 48
-62 34 -110 -15 -55 -65 -74 -200 -74 l-108 0 0 195 0 195 94 0 c51 0 107 -3
125 -6z m231 -234 l0 -150 -30 0 -30 0 0 150 0 150 30 0 30 0 0 -150z m160
125 l0 -26 31 23 c46 34 119 32 156 -5 27 -26 28 -32 31 -147 l4 -120 -30 0
-30 0 -4 101 c-3 92 -5 103 -27 120 -33 27 -68 24 -102 -10 -28 -28 -29 -33
-29 -120 l0 -91 -30 0 -30 0 0 150 0 150 30 0 c25 0 30 -4 30 -25z m473 6 c36
-18 37 -18 37 0 0 15 7 19 31 19 l30 0 -3 -171 -3 -171 -34 -28 c-54 -46 -162
-51 -211 -12 -18 14 -19 20 -8 34 12 16 16 17 57 2 75 -26 141 8 141 73 l0 34
-22 -21 c-31 -28 -104 -30 -146 -4 -85 55 -80 201 9 246 44 23 76 23 122 -1z
m372 5 c44 -19 75 -69 75 -123 l0 -42 -112 -3 -113 -3 32 -32 c36 -37 83 -44
121 -17 18 12 26 13 37 4 22 -18 18 -28 -17 -50 -44 -26 -122 -27 -165 0 -70
43 -89 157 -36 221 47 56 112 72 178 45z m-1424 -513 l44 -58 6 60 6 60 1 -77
c1 -43 -1 -78 -5 -78 -5 0 -26 26 -48 56 l-40 56 -3 -56 c-4 -83 -22 -68 -22
19 0 41 4 75 9 75 5 0 28 -26 52 -57z m189 2 c29 -35 4 -95 -40 -95 -28 0 -52
25 -52 53 0 36 19 57 52 57 15 0 33 -7 40 -15z m61 -32 l15 -48 15 44 c9 25
20 46 25 48 6 2 16 -15 23 -37 7 -22 16 -38 21 -35 6 4 10 10 10 15 0 18 21
63 26 57 10 -10 -27 -108 -39 -104 -6 2 -15 17 -21 34 -17 48 -24 49 -37 4
-15 -49 -26 -52 -43 -8 -22 53 -28 77 -18 77 4 0 15 -21 23 -47z"/>
<path d="M2130 2600 l0 -50 61 0 c76 0 99 12 99 50 0 38 -23 50 -99 50 l-61 0
0 -50z"/>
<path d="M2130 2435 l0 -55 70 0 c57 0 74 4 90 20 11 11 20 27 20 35 0 8 -9
24 -20 35 -16 16 -33 20 -90 20 l-70 0 0 -55z"/>
<path d="M3064 2560 c-55 -22 -71 -99 -31 -145 50 -59 147 -20 147 60 0 61
-64 107 -116 85z"/>
<path d="M3430 2563 c-24 -9 -60 -45 -60 -60 0 -10 21 -13 85 -13 47 0 85 4
85 9 0 6 -10 21 -22 35 -24 26 -62 39 -88 29z"/>
<path d="M2216 2084 c-20 -20 -20 -38 -1 -58 23 -22 64 -2 65 31 0 13 -27 43
-40 43 -5 0 -16 -7 -24 -16z"/>
</g>
</svg>
